# xmcd CD database file
#
# Track frame offsets:
#	150
#	15333
#	31913
#	53339
#	66144
#	85135
#	103453
#	117321
#	138459
#	160292
#
# Disc length: 2283 seconds
#
# Revision: 3
# Processed by: cddbd v1.5.2PL0 Copyright (c) Steve Scherf et al.
# Submitted via: CDex 1.70beta2
#
DISCID=7b08e90a
DTITLE=Angel Witch - Angel Witch
DYEAR=1980
DGENRE=Heavy Metal
TTITLE0=Angel Witch
TTITLE1=Atlantis
TTITLE2=White Witch
TTITLE3=Confused
TTITLE4=Sorcerers
TTITLE5=Gorgon
TTITLE6=Sweet Danger
TTITLE7=Free Man
TTITLE8=Angel Of Death
TTITLE9=Devils Tower
EXTD=YEAR: 1980
EXTT0=
EXTT1=
EXTT2=
EXTT3=
EXTT4=
EXTT5=
EXTT6=
EXTT7=
EXTT8=
EXTT9=
PLAYORDER=
